HIERARCHY
ROOT hip
{
	OFFSET 0.000000 0.000000 0.000000
	CHANNELS 6 Xposition Yposition Zposition Xrotation Zrotation Yrotation 
	JOINT abdomen
	{
		OFFSET 0.000000 3.422050 0.000000
		CHANNELS 3 Xrotation Zrotation Yrotation 
		JOINT chest
		{
			OFFSET 0.000000 8.486693 -0.6844110
			CHANNELS 3 Xrotation Zrotation Yrotation 
			JOINT neck
			{
				OFFSET 0.000000 10.26616 -0.2737640
				CHANNELS 3 Xrotation Zrotation Yrotation 
				JOINT head
				{
					OFFSET 0.000000 3.148285 0.000000
					CHANNELS 3 Xrotation Zrotation Yrotation 
					End Site
					{
						OFFSET 0.000000 3.148289 0.000000
					}
				}
			}
			JOINT lCollar
			{
				OFFSET 3.422053 6.707223 -0.8212930
				CHANNELS 3 Yrotation Zrotation Xrotation 
				JOINT lShldr
				{
					OFFSET 3.285171 0.000000 0.000000
					CHANNELS 3 Zrotation Yrotation Xrotation 
					JOINT lForeArm
					{
						OFFSET 10.12928 0.000000 0.000000
						CHANNELS 3 Yrotation Zrotation Xrotation 
						JOINT lHand
						{
							OFFSET 8.486692 0.000000 0.000000
							CHANNELS 3 Zrotation Yrotation Xrotation 
							End Site
							{
								OFFSET 4.106464 0.000000 0.000000
							}
						}
					}
				}
			}
			JOINT rCollar
			{
				OFFSET -3.558935 6.707223 -0.8212930
				CHANNELS 3 Yrotation Zrotation Xrotation 
				JOINT rShldr
				{
					OFFSET -3.148289 0.000000 0.000000
					CHANNELS 3 Zrotation Yrotation Xrotation 
					JOINT rForeArm
					{
						OFFSET -10.26616 0.000000 0.000000
						CHANNELS 3 Yrotation Zrotation Xrotation 
						JOINT rHand
						{
							OFFSET -8.349810 0.000000 0.000000
							CHANNELS 3 Zrotation Yrotation Xrotation 
							End Site
							{
								OFFSET -4.106464 0.000000 0.000000
							}
						}
					}
				}
			}
		}
	}
	JOINT lThigh
	{
		OFFSET 5.338403 -1.642589 1.368821
		CHANNELS 3 Xrotation Zrotation Yrotation 
		JOINT lShin
		{
			OFFSET -2.053232 -20.12167 0.000000
			CHANNELS 3 Xrotation Zrotation Yrotation 
			JOINT lFoot
			{
				OFFSET 0.000000 -19.30038 -1.231939
				CHANNELS 3 Xrotation Yrotation Zrotation 
				End Site
				{
					OFFSET 0.000000 -2.463878 4.653993
				}
			}
		}
	}
	JOINT rThigh
	{
		OFFSET -5.338403 -1.642589 1.368821
		CHANNELS 3 Xrotation Zrotation Yrotation 
		JOINT rShin
		{
			OFFSET 2.053232 -20.12167 0.000000
			CHANNELS 3 Xrotation Zrotation Yrotation 
			JOINT rFoot
			{
				OFFSET 0.000000 -19.30038 -1.231939
				CHANNELS 3 Xrotation Yrotation Zrotation 
				End Site
				{
					OFFSET 0.000000 -2.463878 4.653993
				}
			}
		}
	}
}
MOTION
Frames:	21
Frame Time:	0.03333333
0.000000 43.52852 0.000000 1.000000 0.000000 0.000000 1.000000 0.000000 0.000000 1.000000 0.000000 0.000000 1.000000 0.000000 0.000000 1.000000 0.000000 0.000000 0.000000 0.000000 1.000000 -65.00000 -44.00000 0.000000 -52.00000 7.000000 0.000000 -75.50000 -26.10000 -0.1000000 0.000000 0.000000 1.000000 65.00000 44.00000 0.000000 52.00000 -7.000000 0.000000 75.50000 26.10000 -0.1000000 0.000000 10.00000 0.000000 1.000000 0.000000 0.000000 1.000000 0.000000 0.000000 0.000000 -10.00000 0.000000 1.000000 0.000000 0.000000 1.000000 0.000000 0.000000 
0.000000 43.52852 0.000000 1.000000 0.000000 0.000000 1.000000 0.000000 0.000000 1.000000 0.000000 0.000000 1.000000 0.000000 0.000000 1.000000 0.000000 0.000000 0.000000 0.000000 1.000000 -65.00000 -44.00000 0.000000 -52.00000 7.000000 0.000000 -67.00000 -30.20000 -1.200000 0.000000 0.000000 1.000000 65.00000 44.00000 0.000000 52.00000 -7.000000 0.000000 67.00000 30.20000 -1.200000 0.000000 10.00000 0.000000 1.000000 0.000000 0.000000 1.000000 0.000000 0.000000 0.000000 -10.00000 0.000000 1.000000 0.000000 0.000000 1.000000 0.000000 0.000000 
0.000000 43.52852 0.000000 1.000000 0.000000 0.000000 1.000000 0.000000 0.000000 1.000000 0.000000 0.000000 1.000000 0.000000 0.000000 1.000000 0.000000 0.000000 0.000000 0.000000 1.000000 -65.00000 -44.00000 0.000000 -52.00000 7.000000 0.000000 -58.50000 -34.30000 -2.300000 0.000000 0.000000 1.000000 65.00000 44.00000 0.000000 52.00000 -7.000000 0.000000 58.50000 34.30000 -2.300000 0.000000 10.00000 0.000000 1.000000 0.000000 0.000000 1.000000 0.000000 0.000000 0.000000 -10.00000 0.000000 1.000000 0.000000 0.000000 1.000000 0.000000 0.000000 
0.000000 43.52852 0.000000 1.000000 0.000000 0.000000 1.000000 0.000000 0.000000 1.000000 0.000000 0.000000 1.000000 0.000000 0.000000 1.000000 0.000000 0.000000 0.000000 0.000000 1.000000 -65.00000 -44.00000 0.000000 -52.00000 7.000000 0.000000 -50.00000 -38.40000 -3.400000 0.000000 0.000000 1.000000 65.00000 44.00000 0.000000 52.00000 -7.000000 0.000000 50.00000 38.40000 -3.400000 0.000000 10.00000 0.000000 1.000000 0.000000 0.000000 1.000000 0.000000 0.000000 0.000000 -10.00000 0.000000 1.000000 0.000000 0.000000 1.000000 0.000000 0.000000 
0.000000 43.52852 0.000000 1.000000 0.000000 0.000000 1.000000 0.000000 0.000000 1.000000 0.000000 0.000000 1.000000 0.000000 0.000000 1.000000 0.000000 0.000000 0.000000 0.000000 1.000000 -65.00000 -44.00000 0.000000 -52.00000 7.000000 0.000000 -41.50000 -42.50000 -4.500000 0.000000 0.000000 1.000000 65.00000 44.00000 0.000000 52.00000 -7.000000 0.000000 41.50000 42.50000 -4.500000 0.000000 10.00000 0.000000 1.000000 0.000000 0.000000 1.000000 0.000000 0.000000 0.000000 -10.00000 0.000000 1.000000 0.000000 0.000000 1.000000 0.000000 0.000000 
0.000000 43.52852 0.000000 1.000000 0.000000 0.000000 1.000000 0.000000 0.000000 1.000000 0.000000 0.000000 1.000000 0.000000 0.000000 1.000000 0.000000 0.000000 0.000000 0.000000 1.000000 -65.00000 -44.00000 0.000000 -52.00000 7.000000 0.000000 -33.00000 -46.60000 -5.600000 0.000000 0.000000 1.000000 65.00000 44.00000 0.000000 52.00000 -7.000000 0.000000 33.00000 46.60000 -5.600000 0.000000 10.00000 0.000000 1.000000 0.000000 0.000000 1.000000 0.000000 0.000000 0.000000 -10.00000 0.000000 1.000000 0.000000 0.000000 1.000000 0.000000 0.000000 
0.000000 43.52852 0.000000 1.000000 0.000000 0.000000 1.000000 0.000000 0.000000 1.000000 0.000000 0.000000 1.000000 0.000000 0.000000 1.000000 0.000000 0.000000 0.000000 0.000000 1.000000 -65.00000 -44.00000 0.000000 -52.00000 7.000000 0.000000 -24.50000 -50.70000 -6.700000 0.000000 0.000000 1.000000 65.00000 44.00000 0.000000 52.00000 -7.000000 0.000000 24.50000 50.70000 -6.700000 0.000000 10.00000 0.000000 1.000000 0.000000 0.000000 1.000000 0.000000 0.000000 0.000000 -10.00000 0.000000 1.000000 0.000000 0.000000 1.000000 0.000000 0.000000 
0.000000 43.52852 0.000000 1.000000 0.000000 0.000000 1.000000 0.000000 0.000000 1.000000 0.000000 0.000000 1.000000 0.000000 0.000000 1.000000 0.000000 0.000000 0.000000 0.000000 1.000000 -65.00000 -44.00000 0.000000 -52.00000 7.000000 0.000000 -16.00000 -54.80000 -7.800000 0.000000 0.000000 1.000000 65.00000 44.00000 0.000000 52.00000 -7.000000 0.000000 16.00000 54.80000 -7.800000 0.000000 10.00000 0.000000 1.000000 0.000000 0.000000 1.000000 0.000000 0.000000 0.000000 -10.00000 0.000000 1.000000 0.000000 0.000000 1.000000 0.000000 0.000000 
0.000000 43.52852 0.000000 1.000000 0.000000 0.000000 1.000000 0.000000 0.000000 1.000000 0.000000 0.000000 1.000000 0.000000 0.000000 1.000000 0.000000 0.000000 0.000000 0.000000 1.000000 -65.00000 -44.00000 0.000000 -52.00000 7.000000 0.000000 -7.500000 -58.90000 -8.900000 0.000000 0.000000 1.000000 65.00000 44.00000 0.000000 52.00000 -7.000000 0.000000 7.500000 58.90000 -8.900000 0.000000 10.00000 0.000000 1.000000 0.000000 0.000000 1.000000 0.000000 0.000000 0.000000 -10.00000 0.000000 1.000000 0.000000 0.000000 1.000000 0.000000 0.000000 
0.000000 43.52852 0.000000 1.000000 0.000000 0.000000 1.000000 0.000000 0.000000 1.000000 0.000000 0.000000 1.000000 0.000000 0.000000 1.000000 0.000000 0.000000 0.000000 0.000000 1.000000 -65.00000 -44.00000 0.000000 -52.00000 7.000000 0.000000 1.000000 -63.00000 -10.00000 0.000000 0.000000 1.000000 65.00000 44.00000 0.000000 52.00000 -7.000000 0.000000 -1.000000 63.00000 -10.00000 0.000000 10.00000 0.000000 1.000000 0.000000 0.000000 1.000000 0.000000 0.000000 0.000000 -10.00000 0.000000 1.000000 0.000000 0.000000 1.000000 0.000000 0.000000 
0.000000 43.52852 0.000000 1.000000 0.000000 0.000000 1.000000 0.000000 0.000000 1.000000 0.000000 0.000000 1.000000 0.000000 0.000000 1.000000 0.000000 0.000000 0.000000 0.000000 1.000000 -65.00000 -44.00000 0.000000 -52.00000 7.000000 0.000000 4.400000 -59.30000 -12.80000 0.000000 0.000000 1.000000 65.00000 44.00000 0.000000 52.00000 -7.000000 0.000000 -4.400000 59.30000 -12.80000 0.000000 10.00000 0.000000 1.000000 0.000000 0.000000 1.000000 0.000000 0.000000 0.000000 -10.00000 0.000000 1.000000 0.000000 0.000000 1.000000 0.000000 0.000000 
0.000000 43.52852 0.000000 1.000000 0.000000 0.000000 1.000000 0.000000 0.000000 1.000000 0.000000 0.000000 1.000000 0.000000 0.000000 1.000000 0.000000 0.000000 0.000000 0.000000 1.000000 -65.00000 -44.00000 0.000000 -52.00000 7.000000 0.000000 7.800000 -55.60000 -15.60000 0.000000 0.000000 1.000000 65.00000 44.00000 0.000000 52.00000 -7.000000 0.000000 -7.800000 55.60000 -15.60000 0.000000 10.00000 0.000000 1.000000 0.000000 0.000000 1.000000 0.000000 0.000000 0.000000 -10.00000 0.000000 1.000000 0.000000 0.000000 1.000000 0.000000 0.000000 
0.000000 43.52852 0.000000 1.000000 0.000000 0.000000 1.000000 0.000000 0.000000 1.000000 0.000000 0.000000 1.000000 0.000000 0.000000 1.000000 0.000000 0.000000 0.000000 0.000000 1.000000 -65.00000 -44.00000 0.000000 -52.00000 7.000000 0.000000 11.20000 -51.90000 -18.40000 0.000000 0.000000 1.000000 65.00000 44.00000 0.000000 52.00000 -7.000000 0.000000 -11.20000 51.90000 -18.40000 0.000000 10.00000 0.000000 1.000000 0.000000 0.000000 1.000000 0.000000 0.000000 0.000000 -10.00000 0.000000 1.000000 0.000000 0.000000 1.000000 0.000000 0.000000 
0.000000 43.52852 0.000000 1.000000 0.000000 0.000000 1.000000 0.000000 0.000000 1.000000 0.000000 0.000000 1.000000 0.000000 0.000000 1.000000 0.000000 0.000000 0.000000 0.000000 1.000000 -65.00000 -44.00000 0.000000 -52.00000 7.000000 0.000000 14.60000 -48.20000 -21.20000 0.000000 0.000000 1.000000 65.00000 44.00000 0.000000 52.00000 -7.000000 0.000000 -14.60000 48.20000 -21.20000 0.000000 10.00000 0.000000 1.000000 0.000000 0.000000 1.000000 0.000000 0.000000 0.000000 -10.00000 0.000000 1.000000 0.000000 0.000000 1.000000 0.000000 0.000000 
0.000000 43.52852 0.000000 1.000000 0.000000 0.000000 1.000000 0.000000 0.000000 1.000000 0.000000 0.000000 1.000000 0.000000 0.000000 1.000000 0.000000 0.000000 0.000000 0.000000 1.000000 -65.00000 -44.00000 0.000000 -52.00000 7.000000 0.000000 18.00000 -44.50000 -24.00000 0.000000 0.000000 1.000000 65.00000 44.00000 0.000000 52.00000 -7.000000 0.000000 -18.00000 44.50000 -24.00000 0.000000 10.00000 0.000000 1.000000 0.000000 0.000000 1.000000 0.000000 0.000000 0.000000 -10.00000 0.000000 1.000000 0.000000 0.000000 1.000000 0.000000 0.000000 
0.000000 43.52852 0.000000 1.000000 0.000000 0.000000 1.000000 0.000000 0.000000 1.000000 0.000000 0.000000 1.000000 0.000000 0.000000 1.000000 0.000000 0.000000 0.000000 0.000000 1.000000 -65.00000 -44.00000 0.000000 -52.00000 7.000000 0.000000 21.40000 -40.80000 -26.80000 0.000000 0.000000 1.000000 65.00000 44.00000 0.000000 52.00000 -7.000000 0.000000 -21.40000 40.80000 -26.80000 0.000000 10.00000 0.000000 1.000000 0.000000 0.000000 1.000000 0.000000 0.000000 0.000000 -10.00000 0.000000 1.000000 0.000000 0.000000 1.000000 0.000000 0.000000 
0.000000 43.52852 0.000000 1.000000 0.000000 0.000000 1.000000 0.000000 0.000000 1.000000 0.000000 0.000000 1.000000 0.000000 0.000000 1.000000 0.000000 0.000000 0.000000 0.000000 1.000000 -65.00000 -44.00000 0.000000 -52.00000 7.000000 0.000000 24.80000 -37.10000 -29.60000 0.000000 0.000000 1.000000 65.00000 44.00000 0.000000 52.00000 -7.000000 0.000000 -24.80000 37.10000 -29.60000 0.000000 10.00000 0.000000 1.000000 0.000000 0.000000 1.000000 0.000000 0.000000 0.000000 -10.00000 0.000000 1.000000 0.000000 0.000000 1.000000 0.000000 0.000000 
0.000000 43.52852 0.000000 1.000000 0.000000 0.000000 1.000000 0.000000 0.000000 1.000000 0.000000 0.000000 1.000000 0.000000 0.000000 1.000000 0.000000 0.000000 0.000000 0.000000 1.000000 -65.00000 -44.00000 0.000000 -52.00000 7.000000 0.000000 28.20000 -33.40000 -32.40000 0.000000 0.000000 1.000000 65.00000 44.00000 0.000000 52.00000 -7.000000 0.000000 -28.20000 33.40000 -32.40000 0.000000 10.00000 0.000000 1.000000 0.000000 0.000000 1.000000 0.000000 0.000000 0.000000 -10.00000 0.000000 1.000000 0.000000 0.000000 1.000000 0.000000 0.000000 
0.000000 43.52852 0.000000 1.000000 0.000000 0.000000 1.000000 0.000000 0.000000 1.000000 0.000000 0.000000 1.000000 0.000000 0.000000 1.000000 0.000000 0.000000 0.000000 0.000000 1.000000 -65.00000 -44.00000 0.000000 -52.00000 7.000000 0.000000 31.60000 -29.70000 -35.20000 0.000000 0.000000 1.000000 65.00000 44.00000 0.000000 52.00000 -7.000000 0.000000 -31.60000 29.70000 -35.20000 0.000000 10.00000 0.000000 1.000000 0.000000 0.000000 1.000000 0.000000 0.000000 0.000000 -10.00000 0.000000 1.000000 0.000000 0.000000 1.000000 0.000000 0.000000 
0.000000 43.52852 0.000000 1.000000 0.000000 0.000000 1.000000 0.000000 0.000000 1.000000 0.000000 0.000000 1.000000 0.000000 0.000000 1.000000 0.000000 0.000000 0.000000 0.000000 1.000000 -65.00000 -44.00000 0.000000 -52.00000 7.000000 0.000000 35.00000 -26.00000 -38.00000 0.000000 0.000000 1.000000 65.00000 44.00000 0.000000 52.00000 -7.000000 0.000000 -35.00000 26.00000 -38.00000 0.000000 10.00000 0.000000 1.000000 0.000000 0.000000 1.000000 0.000000 0.000000 0.000000 -10.00000 0.000000 1.000000 0.000000 0.000000 1.000000 0.000000 0.000000 
0.000000 43.52852 0.000000 1.000000 0.000000 0.000000 1.000000 0.000000 0.000000 1.000000 0.000000 0.000000 1.000000 0.000000 0.000000 1.000000 0.000000 0.000000 0.000000 0.000000 1.000000 -65.00000 -44.00000 0.000000 -52.00000 7.000000 0.000000 35.20000 -20.90000 -37.30000 0.000000 0.000000 1.000000 65.00000 44.00000 0.000000 52.00000 -7.000000 0.000000 -35.20000 20.90000 -37.30000 0.000000 10.00000 0.000000 1.000000 0.000000 0.000000 1.000000 0.000000 0.000000 0.000000 -10.00000 0.000000 1.000000 0.000000 0.000000 1.000000 0.000000 0.000000 
